<?xml version="1.0" standalone="no"?>
<!DOCTYPE svg PUBLIC "-//W3C//DTD SVG 20010904//EN"
 "http://www.w3.org/TR/2001/REC-SVG-20010904/DTD/svg10.dtd">
<svg version="1.0" xmlns="http://www.w3.org/2000/svg"
 width="180.000000pt" height="180.000000pt" viewBox="0 0 180.000000 180.000000"
 preserveAspectRatio="xMidYMid meet">
<metadata>
Created by potrace 1.11, written by Peter Selinger 2001-2013
</metadata>
<g transform="translate(0.000000,180.000000) scale(0.100000,-0.100000)"
fill="#000000" stroke="none">
<path d="M489 1458 c-23 -40 -105 -181 -182 -313 -77 -132 -141 -242 -143
-245 -1 -3 80 -147 181 -320 l183 -315 377 0 377 0 175 300 c96 165 178 307
183 315 6 11 -44 105 -175 330 l-183 315 -376 3 -375 2 -42 -72z m481 -126 l0
-59 38 -11 c46 -14 132 -70 132 -85 0 -7 -19 -31 -41 -55 l-40 -43 -26 21
c-75 59 -183 41 -183 -32 0 -38 25 -60 119 -108 88 -44 144 -88 167 -131 21
-42 18 -142 -6 -189 -23 -45 -75 -90 -122 -106 -32 -10 -33 -13 -36 -72 l-3
-62 -54 0 -55 0 0 59 c0 58 0 59 -32 65 -41 7 -153 60 -163 76 -4 6 9 36 29
66 l36 54 38 -24 c105 -69 222 -50 222 37 0 34 -39 69 -130 116 -138 72 -173
115 -173 211 0 92 55 170 138 197 29 9 30 13 33 71 l3 62 54 0 55 0 0 -58z"/>
</g>
</svg>
